<svg xmlns="http://www.w3.org/2000/svg" width="110" height="36" viewBox="0 0 110 36">
  <g id="twitter" transform="translate(-262 -1035)">
    <rect id="長方形_31" data-name="長方形 31" width="110" height="36" transform="translate(262 1035)" fill="#00acee"/>
    <g id="グループ_14" data-name="グループ 14" transform="translate(6.999 3)">
      <text id="ツイート" transform="translate(298 1055)" fill="#fff" font-size="14" font-family="HiraKakuProN-W6, Hiragino Kaku Gothic ProN"><tspan x="0" y="0">ツイート</tspan></text>
      <path id="twitter-brands" d="M22.094,53.066c.016.219.016.438.016.656A14.261,14.261,0,0,1,7.75,68.082,14.262,14.262,0,0,1,0,65.816a10.441,10.441,0,0,0,1.219.062,10.107,10.107,0,0,0,6.266-2.156,5.056,5.056,0,0,1-4.719-3.5,6.365,6.365,0,0,0,.953.078,5.338,5.338,0,0,0,1.328-.172A5.048,5.048,0,0,1,1,55.176v-.062a5.083,5.083,0,0,0,2.281.641A5.054,5.054,0,0,1,1.719,49a14.346,14.346,0,0,0,10.406,5.281A5.7,5.7,0,0,1,12,53.129a5.052,5.052,0,0,1,8.734-3.453,9.936,9.936,0,0,0,3.2-1.219,5.033,5.033,0,0,1-2.219,2.781,10.118,10.118,0,0,0,2.906-.781A10.849,10.849,0,0,1,22.094,53.066Z" transform="translate(267.001 991.918)" fill="#fff"/>
    </g>
  </g>
</svg>
